# xmcd CD database file
#
# Track frame offsets:
#	150
#	31786
#	49501
#	71627
#	103727
#	120153
#	155629
#	187940
#	218331
#	249906
#	282382
#
# Disc length: 4084 seconds
#
# Revision: 0
# Processed by: cddbd v1.5.1PL0 Copyright (c) Steve Scherf et al.
# Submitted via: CDex 1.51
#
DISCID=890ff20b
DTITLE=Eddie Higgins Quartet - My Funny Valentine
DYEAR=2004
DGENRE=Jazz
TTITLE0=You'd Be So Nice To Come Home To
TTITLE1=I'm A Fool To Want You
TTITLE2=When Sunny Gets Blue
TTITLE3=Alone Together
TTITLE4=My Funny Valentine
TTITLE5=It's All Right With Me
TTITLE6=Stardust
TTITLE7=I Only Have Eyes For You
TTITLE8=Don't Explain
TTITLE9=Slow Boat To China
TTITLE10=Imagination
EXTD=YEAR: 2004
EXTT0=
EXTT1=
EXTT2=
EXTT3=
EXTT4=
EXTT5=
EXTT6=
EXTT7=
EXTT8=
EXTT9=
EXTT10=
PLAYORDER=
